<?xml version="1.0" encoding="UTF-8"?><svg id="Layer_1" xmlns="http://www.w3.org/2000/svg" viewBox="0 0 181.42 56.69"><path d="M36.29,53.42l3.11-10.8h2.25l3.09,10.8h-.95l-.87-2.98h-4.82l-.85,2.98h-.96ZM40.1,43.46l-1.76,6.12h4.35l-1.76-6.12h-.84,0Z" style="fill:#fff; stroke-width:0px;"/><path d="M53.9,43.15l2.36,6.34,2.33-6.26c.33-.89.82-.96,1.13-.96.64,0,1.2.5,1.2,1.12,0,.2-.03.37-.11.56l-3.36,8.54c-.34.89-.7,1.03-1.2,1.03-.4,0-.82-.06-1.21-1.06l-3.25-8.25c-.12-.31-.2-.5-.2-.82,0-.62.56-1.12,1.2-1.12.54,0,.92.39,1.1.88h.01Z" style="fill:#fff; stroke-width:0px;"/><path d="M61.3,52.43c0-.14.02-.25.12-.56l3.08-8.33c.31-.84.95-1.37,1.69-1.37s1.37.47,1.65,1.26l3.06,8.5c.08.22.12.42.12.56,0,.59-.5,1.03-1.07,1.03-.67,0-.99-.37-1.15-.85l-.45-1.41h-4.32l-.47,1.44c-.15.47-.47.82-1.13.82-.61,0-1.13-.47-1.13-1.09ZM64.7,49.11h2.95l-1.44-4.5h-.03s-1.48,4.5-1.48,4.5Z" style="fill:#fff; stroke-width:0px;"/><path d="M79.85,43.73c0,.64-.44,1.15-1.04,1.15-.56,0-1.24-.47-2.05-.47s-1.29.44-1.29,1.01c0,.51.59.82,1.66,1.1,2.94.75,3.53,1.99,3.53,3.48,0,2.11-1.72,3.6-3.98,3.6-2.02,0-3.77-.57-3.77-1.74,0-.64.43-1.1,1.04-1.1.67,0,1.65.61,2.61.61s1.58-.53,1.58-1.34c0-.64-.62-.98-1.88-1.29-2.56-.64-3.31-1.59-3.31-3.04,0-2.14,1.76-3.53,3.85-3.53,1.3,0,3.04.5,3.04,1.55h0Z" style="fill:#fff; stroke-width:0px;"/><path d="M89.75,43.73c0,.64-.44,1.15-1.04,1.15-.56,0-1.24-.47-2.05-.47s-1.29.44-1.29,1.01c0,.51.59.82,1.66,1.1,2.94.75,3.53,1.99,3.53,3.48,0,2.11-1.72,3.6-3.98,3.6-2.02,0-3.77-.57-3.77-1.74,0-.64.43-1.1,1.04-1.1.67,0,1.65.61,2.61.61s1.58-.53,1.58-1.34c0-.64-.62-.98-1.88-1.29-2.56-.64-3.31-1.59-3.31-3.04,0-2.14,1.76-3.53,3.85-3.53,1.3,0,3.04.5,3.04,1.55h0Z" style="fill:#fff; stroke-width:0px;"/><path d="M105.18,53.25c-1.07.22-1.98.33-2.73.33s-1.37-.08-1.83-.24-.84-.39-1.13-.68-.52-.67-.68-1.13c-.31-.85-.47-2-.47-3.46,0-2.34.37-3.89,1.12-4.65.61-.63,1.54-.95,2.8-.95.86,0,1.83.11,2.92.33l-.05.84c-1.08-.2-1.94-.3-2.6-.3s-1.16.07-1.51.21c-.36.14-.65.33-.87.56s-.39.56-.51.97c-.21.7-.31,1.58-.31,2.64s.04,1.85.11,2.37.21,1,.42,1.42.51.73.92.92c.4.19.96.28,1.68.28s1.61-.1,2.67-.3c0,0,.05.84.05.84Z" style="fill:#fff; stroke-width:0px;"/><path d="M116.57,48.11c0,1.93-.3,3.32-.91,4.18s-1.71,1.29-3.31,1.29-2.7-.44-3.31-1.32-.91-2.27-.91-4.17.31-3.31.92-4.23,1.71-1.38,3.29-1.38,2.69.46,3.3,1.37c.62.92.93,2.34.93,4.27h0ZM109.78,51.63c.44.72,1.29,1.08,2.57,1.08s2.14-.35,2.57-1.06c.44-.7.65-1.88.65-3.54s-.23-2.86-.68-3.63c-.46-.77-1.3-1.15-2.55-1.15s-2.15.41-2.6,1.24c-.24.42-.4.91-.49,1.46s-.13,1.23-.13,2.04c0,1.65.22,2.83.65,3.55h0Z" style="fill:#fff; stroke-width:0px;"/><path d="M120.39,53.42v-10.8h1.8l3.34,9.45,3.33-9.45h1.8v10.8h-.96v-9.8h-.22l-3.39,9.45h-1.13l-3.39-9.45h-.22v9.8h-.96Z" style="fill:#fff; stroke-width:0px;"/><path d="M138.87,49.66h-2.98v3.76h-.96v-10.8h3.95c1.15,0,2,.28,2.54.84s.82,1.42.82,2.58c0,2.41-1.12,3.62-3.36,3.62h0ZM135.89,48.81h2.98c1.57,0,2.36-.92,2.36-2.77,0-.88-.19-1.53-.56-1.94s-.97-.62-1.8-.62h-2.98v5.33Z" style="fill:#fff; stroke-width:0px;"/><path d="M144.2,53.42l3.11-10.8h2.25l3.09,10.8h-.95l-.87-2.98h-4.82l-.85,2.98h-.96,0ZM148.01,43.46l-1.76,6.12h4.35l-1.76-6.12h-.84,0Z" style="fill:#fff; stroke-width:0px;"/><path d="M155.94,53.42v-10.8h1.9l4.52,9.95h.36v-9.95h.95v10.8h-1.86l-4.55-9.93h-.34v9.93h-.98Z" style="fill:#fff; stroke-width:0px;"/><path d="M171.22,53.42h-.96v-4.57l-3.46-6.23h1.07l2.87,5.24,2.86-5.24h1.09l-3.46,6.23v4.57h0Z" style="fill:#fff; stroke-width:0px;"/><path d="M44.7,25.35h-12.34c.31.72.77,1.37,1.37,1.93.66.66,1.4,1.15,2.21,1.48.82.33,1.68.49,2.59.49,1.29,0,2.43-.3,3.44-.9l4.91,3.37c-1.29,1.29-1.52,1.34-3.12,2.07-1.6.74-3.34,1.11-5.23,1.11-1.73,0-3.34-.32-4.85-.97-1.51-.64-2.83-1.53-3.96-2.66-1.13-1.13-2.02-2.45-2.66-3.96s-.97-3.11-.97-4.81.32-3.34.97-4.85c.64-1.51,1.53-2.83,2.66-3.96s2.45-2.02,3.96-2.66c1.51-.64,3.12-.97,4.85-.97s3.34.32,4.85.97c1.51.64,2.83,1.53,3.96,2.66s2.02,2.45,2.66,3.96.97,3.13.97,4.85c0,1.01-.11,1.95-.33,2.83h-5.94v.02ZM38.53,15.74c-1.82,0-3.42.66-4.81,1.98-.6.6-1.05,1.26-1.37,1.98h12.34c-.31-.72-.77-1.38-1.37-1.98-1.32-1.32-2.92-1.98-4.81-1.98h.02Z" style="fill:#fff; stroke-width:0px;"/><path d="M66.78,10.1v5.64c-1.88,0-3.48.3-4.79,1.62-1.32,1.38-1.97,2.98-1.97,4.79v12.77h-5.64V10.12h5.64v2.59c1.71-1.51,6.76-2.62,6.76-2.62h0Z" style="fill:#fff; stroke-width:0px;"/><path d="M140.64,34.93h-5.17c-1.07,0-2.07-.2-3.01-.61s-1.75-.96-2.44-1.67c-.69-.7-1.24-1.53-1.64-2.47-.41-.94-.61-1.94-.61-3.01V3.09h5.61l.03,7.01h4.7v5.52h-4.7v11.56c0,.6.2,1.1.61,1.5.41.41.89.61,1.46.61l5.17.02v5.61h-.01Z" style="fill:#fff; stroke-width:0px;"/><rect x="144.87" y="3.15" width="5.64" height="5.64" style="fill:#fff; stroke-width:0px;"/><rect x="144.87" y="12.18" width="5.64" height="22.73" style="fill:#fff; stroke-width:0px;"/><path d="M175.57,31.3c-1.13,1.13-2.45,2.02-3.96,2.66-1.51.64-3.13.97-4.85.97s-3.34-.32-4.85-.97c-1.51-.64-2.83-1.53-3.96-2.66s-2.02-2.45-2.66-3.96c-.64-1.51-.97-3.11-.97-4.81s.32-3.34.97-4.85c.64-1.51,1.53-2.83,2.66-3.96s2.45-2.02,3.96-2.66c1.51-.64,3.12-.97,4.85-.97s3.34.32,4.85.97c1.51.64,2.83,1.53,3.96,2.66l-4,4c-1.32-1.32-2.92-1.98-4.81-1.98s-3.42.66-4.81,1.98c-1.32,1.32-1.98,2.92-1.98,4.81s.66,3.44,1.98,4.76c.66.66,1.4,1.15,2.21,1.48.82.33,1.68.49,2.59.49,1.92,0,3.52-.66,4.81-1.98l4,4v.02Z" style="fill:#fff; stroke-width:0px;"/><path d="M94.6,17.73c-.6-1.5-1.43-2.82-2.49-3.95-1.07-1.13-2.33-2.01-3.78-2.65-1.46-.64-3.05-.96-4.77-.96-1.53,0-2.9.24-4.09.7-1.19.47-2.24,1.07-3.15,1.79V3.09h-5.64v31.82h5.64v-12.35c0-1.88.66-3.48,1.97-4.79,1.38-1.32,2.98-1.97,4.79-1.97s3.48.66,4.79,1.97,1.97,2.91,1.97,4.79-.66,3.43-1.97,4.75c-1.28,1.32-2.88,1.97-4.79,1.97-.16,0-3.44.02-3.6,0v5.61c.31.02,3.75.02,4.07.02,1.72,0,3.31-.32,4.77-.96s2.72-1.53,3.78-2.66,1.89-2.44,2.49-3.95c.59-1.5.89-3.1.89-4.79s-.3-3.34-.89-4.84v.02Z" style="fill:#fff; stroke-width:0px;"/><path d="M117.47,10.13v2.49c-.91-.72-1.96-1.31-3.15-1.79-1.19-.47-2.55-.7-4.09-.7-1.72,0-3.31.32-4.77.96-1.46.64-2.72,1.53-3.78,2.66-1.07,1.13-1.9,2.44-2.49,3.95-.6,1.5-.89,3.12-.89,4.84s.3,3.29.89,4.79,1.42,2.82,2.49,3.95c1.06,1.13,2.33,2.01,3.78,2.65,1.46.64,3.05.96,4.77.96.45,0,3.83-.02,4.25-.06v-5.62c-.28.03-3.49.05-3.79.05-.91,0-1.78-.16-2.61-.49s-1.56-.82-2.18-1.48c-1.31-1.32-1.97-2.9-1.97-4.74s.66-3.48,1.97-4.79c.63-.63,1.35-1.11,2.18-1.46.83-.34,1.7-.52,2.61-.52,1.88,0,3.48.66,4.79,1.97,1.32,1.32,1.97,2.91,1.97,4.79l.02,12.39h5.62V10.13h-5.64.02Z" style="fill:#fff; stroke-width:0px;"/><path d="M7.06,28.93c1.41.86,4.07,1.76,6.29,1.76,2.72,0,3.92-1.11,3.92-2.72s-1.01-2.52-4.02-3.57c-4.78-1.66-6.79-4.28-6.74-7.14,0-4.33,3.57-7.7,9.26-7.7,2.72,0,5.08.7,6.49,1.46l-1.21,4.38c-1.06-.6-3.02-1.41-5.18-1.41s-3.42,1.06-3.42,2.57,1.16,2.31,4.28,3.42c4.43,1.61,6.49,3.87,6.54,7.5,0,4.43-3.47,7.65-9.96,7.65-2.97,0-5.63-.7-7.45-1.71l1.21-4.48h-.01Z" style="fill:#fff; stroke-width:0px;"/></svg>